# xmcd
#
# Track frame offsets: 
#        150
#        23611
#        50602
#        87350
#        111549
#        135460
#        150185
#        172430
#        191188
#        214613
#        245999
#        262068
#        278632
#
# Disc length: 4244 seconds
#
# Revision: 0
# Processed by: cddbd v1.5.2PL0 Copyright (c) Steve Scherf et al.
# Submitted via: ExactAudioCopy v1.2
#
DISCID=c210920d
DTITLE=Hans Theessink - 70 Birthday Bash [CD1]
DYEAR=2019
DGENRE=Blues
TTITLE0=Stormwarning
TTITLE1=Honest I Do
TTITLE2=Vicksburg Is My Home
TTITLE3=Built for Comfort
TTITLE4=Walking the Dog
TTITLE5=Change Is Gonna Come
TTITLE6=Cocaine Blues
TTITLE7=Jesus on the Mainline
TTITLE8=Set Me Free
TTITLE9=Zambezi
TTITLE10=Uncloudy Day
TTITLE11=I Saw the Light
TTITLE12=Will the Circle Be Unbroken
EXTD=
EXTT0=
EXTT1=
EXTT2=
EXTT3=
EXTT4=
EXTT5=
EXTT6=
EXTT7=
EXTT8=
EXTT9=
EXTT10=
EXTT11=
EXTT12=
PLAYORDER=
